<?xml version="1.0" encoding="UTF-8"?>
<svg id="Camada_2" data-name="Camada 2" xmlns="http://www.w3.org/2000/svg" viewBox="0 0 354.44 96.61">
  <defs>
    <style>
      .cls-1 {
        fill: #fff;
      }
    </style>
  </defs>
  <g id="Camada_1-2" data-name="Camada 1">
    <g>
      <path class="cls-1" d="M50.63,1.89c3.11,1.26,6.14,3.04,9.11,5.33.81.67,1.52,1,2.11,1,1.48,0,2.44-2.22,2.89-6.66h2.55c-.3,5.04-.44,13.99-.44,26.87h-2.55c-.67-5.48-1.55-9.66-2.67-12.55-1.11-2.89-3-5.4-5.66-7.55-1.85-1.78-4-3.13-6.44-4.05-2.44-.92-5-1.39-7.66-1.39-7.48,0-13.03,3.65-16.66,10.94-3.63,7.29-5.44,16.38-5.44,27.26s1.89,19.84,5.66,27.09c3.78,7.26,9.4,10.88,16.88,10.88,2.52,0,5.01-.46,7.5-1.39,2.48-.92,4.57-2.28,6.27-4.05,2.74-2.07,4.64-4.66,5.72-7.77,1.07-3.11,1.9-7.66,2.5-13.66h2.55c0,13.4.15,22.73.44,27.98h-2.55c-.22-2.37-.54-4.05-.94-5.05-.41-1-.98-1.5-1.72-1.5-.59,0-1.37.3-2.33.89-3.33,2.37-6.51,4.16-9.55,5.39-3.04,1.22-6.7,1.83-10.99,1.83-7.85,0-14.71-1.59-20.6-4.77-5.89-3.18-10.46-7.79-13.71-13.83C1.63,57.09,0,49.9,0,41.53s1.67-15.36,5-21.65c3.33-6.29,7.98-11.18,13.94-14.66C24.89,1.74,31.68,0,39.31,0c4.44,0,8.22.63,11.33,1.89Z"/>
      <path class="cls-1" d="M111.6,3.78c-2.52.15-4.33.44-5.44.89-1.11.44-1.87,1.3-2.28,2.55-.41,1.26-.61,3.29-.61,6.11v55.08c0,2.81.2,4.85.61,6.11.41,1.26,1.17,2.11,2.28,2.55,1.11.44,2.92.74,5.44.89v2.22c-4-.22-9.59-.33-16.77-.33-7.92,0-13.77.11-17.54.33v-2.22c2.44-.15,4.24-.44,5.39-.89,1.15-.44,1.92-1.29,2.33-2.55.41-1.26.61-3.29.61-6.11V13.33c0-2.81-.2-4.85-.61-6.11-.41-1.26-1.19-2.11-2.33-2.55-1.15-.44-2.94-.74-5.39-.89V1.55c3.78.22,9.62.33,17.54.33,7.18,0,12.77-.11,16.77-.33v2.22Z"/>
      <path class="cls-1" d="M192.21,3.78c-2.44.37-4.24,1-5.39,1.89-1.15.89-1.93,2.3-2.33,4.22-.41,1.93-.61,4.77-.61,8.55v61.96l-2.67-.11-3,.11-48.19-61.07v42.64c0,4.37.22,7.57.67,9.61.44,2.04,1.41,3.52,2.89,4.44,1.48.93,3.89,1.57,7.22,1.94v2.22c-2.89-.22-6.88-.33-11.99-.33-4.07,0-7.29.11-9.66.33v-2.22c2.44-.37,4.24-1,5.39-1.89,1.15-.89,1.92-2.29,2.33-4.22.41-1.92.61-4.77.61-8.55V13.33c0-2.81-.21-4.85-.61-6.11-.41-1.26-1.19-2.11-2.33-2.55-1.15-.44-2.94-.74-5.39-.89V1.55c2.37.22,5.59.33,9.66.33,3.7,0,6.88-.11,9.55-.33l42.97,52.97V19.77c0-4.37-.22-7.57-.67-9.6-.44-2.04-1.41-3.52-2.89-4.44-1.48-.92-3.89-1.57-7.22-1.94V1.55c2.89.22,6.89.33,11.99.33,4.15,0,7.37-.11,9.66-.33v2.22Z"/>
      <path class="cls-1" d="M260.83,80.17c-5.04-.22-13.51-.33-25.43-.33-16.14,0-28.2.11-36.2.33v-2.22c2.44-.15,4.24-.44,5.39-.89,1.15-.44,1.92-1.29,2.33-2.55.41-1.26.61-3.29.61-6.11V13.33c0-2.81-.21-4.85-.61-6.11-.41-1.26-1.18-2.11-2.33-2.55-1.15-.44-2.94-.74-5.39-.89V1.55c8,.22,20.06.33,36.2.33,10.88,0,18.62-.11,23.21-.33-.52,6.15-.78,11.62-.78,16.43,0,3.26.11,5.77.33,7.55h-2.55c-1.11-7.92-3.11-13.47-6-16.66-2.89-3.18-6.96-4.77-12.21-4.77h-4.55c-2.3,0-3.96.19-5,.56-1.04.37-1.74,1.09-2.11,2.17-.37,1.07-.56,2.8-.56,5.16v27.54h3.55c3.92,0,6.9-1.44,8.94-4.33,2.04-2.89,3.46-6.33,4.28-10.33h2.55c-.22,3.11-.33,6.59-.33,10.44v5.33c0,3.78.22,9.03.67,15.77h-2.55c-1.55-9.77-6.07-14.66-13.55-14.66h-3.55v27.98c0,2.37.18,4.09.56,5.16.37,1.07,1.07,1.8,2.11,2.17,1.04.37,2.7.56,5,.56h5.44c5.25,0,9.49-1.79,12.71-5.39,3.22-3.59,5.5-9.68,6.83-18.27h2.55c-.22,2.44-.33,5.55-.33,9.33,0,6.81.26,12.44.78,16.88Z"/>
      <path class="cls-1" d="M297.14,69.4c0,3.18.59,5.38,1.78,6.61,1.18,1.22,3.26,1.83,6.22,1.83v2.33c-8-.29-13.1-.44-15.32-.44-2.44,0-7.77.11-15.99.33l-3.11.11v-2.33c3.48,0,6.09-.67,7.83-2,1.74-1.33,2.61-3.7,2.61-7.11v-27.09c0-3.55-.32-6.16-.94-7.83-.63-1.67-1.68-2.78-3.17-3.33-1.48-.56-3.74-.83-6.77-.83v-2.44c6.44-.15,11.73-.65,15.88-1.5,4.15-.85,7.81-2.24,10.99-4.16v47.86Z"/>
      <path class="cls-1" d="M350.33,37.2c-1.55-.37-6.7-.56-15.43-.56h-17.1l-1.78,18.99c4.29-2.96,9.88-4.44,16.77-4.44s12.49,1.63,16.16,4.89c3.66,3.26,5.5,7.48,5.5,12.66,0,5.48-2.15,10.35-6.44,14.6-4.29,4.26-9.83,7.53-16.6,9.83-6.77,2.29-13.75,3.44-20.93,3.44v-2c4.66-.07,9.11-1.09,13.33-3.05,4.22-1.96,7.62-4.85,10.22-8.66,2.59-3.81,3.89-8.31,3.89-13.49,0-4.66-1.09-8.23-3.28-10.72-2.18-2.48-5.35-3.72-9.49-3.72-2,0-3.78.26-5.33.78-1.55.52-3.11,1.33-4.66,2.44l-1.55-1,3.55-34.76c1.48.3,3.48.44,6,.44h18.32c2.15,0,3.65-.31,4.5-.94.85-.63,1.39-1.76,1.61-3.39h2.33c0,8.66.15,14.88.44,18.66Z"/>
    </g>
  </g>
</svg>